<svg xmlns="http://www.w3.org/2000/svg" aria-hidden="true" overflow="hidden" style="width:0;height:0;position:absolute"><defs><symbol id="icon-magnifier" viewBox="0 0 34 32"><path d="M14.67 26.5c2.96 0 5.83-.94 8.16-2.67l7.33 6.96 2.35-2.24-7.32-6.96A12.2 12.2 0 0 0 28 13.83c0-6.98-5.98-12.66-13.33-12.66S1.33 6.85 1.33 13.83 7.32 26.5 14.67 26.5zm0-22.17c5.51 0 10 4.26 10 9.5s-4.49 9.5-10 9.5-10-4.26-10-9.5 4.48-9.5 10-9.5z"/></symbol><symbol id="icon-menu" viewBox="0 0 32 32"><path stroke-linecap="round" stroke-linejoin="round" stroke-width="2.67" d="M4 16h24M4 8h24M4 24h24"/></symbol><symbol id="icon-moon" viewBox="0 0 32 32"><path fill="none" stroke-linecap="round" stroke-linejoin="round" stroke-width="2.53" d="M29.26 17.16a13.26 13.26 0 0 1-26.15 1.67 13.26 13.26 0 0 1 11.73-16.1 10.32 10.32 0 0 0 1 13.43 10.32 10.32 0 0 0 13.42 1z"/></symbol><symbol id="icon-sun" viewBox="0 0 32 32"><path fill="none" stroke-linecap="round" stroke-linejoin="round" stroke-width="2.29" d="M16 1.78v2.58m0 23.28v2.58M5.94 5.94l1.84 1.84m16.44 16.44 1.84 1.84M1.78 16h2.58m23.28 0h2.58M5.94 26.06l1.84-1.84M24.22 7.78l1.84-1.84M22.46 16a6.46 6.46 0 1 1-12.93 0 6.46 6.46 0 0 1 12.94 0z"/></symbol><symbol id="icon-arrow-down" viewBox="0 0 32 32"><path d="M3.76 9.143 0 12.622l16 14.807 16-14.807-3.76-3.479L16 20.446 3.76 9.143z"/></symbol><symbol id="icon-arrow-up" viewBox="0 0 32 32"><path fill="#4440f6" d="M3.76 25.143 0 21.664 16 6.857l16 14.807-3.76 3.479L16 13.84 3.76 25.143z" style="fill:var(--color1,#4440f6)"/></symbol><symbol id="icon-calendar" viewBox="0 0 32 32"><path d="M22.667 4H28c.736 0 1.333.597 1.333 1.333v21.334c0 .736-.597 1.333-1.333 1.333H4a1.333 1.333 0 0 1-1.333-1.333V5.333C2.667 4.597 3.264 4 4 4h5.333V1.333H12V4h8V1.333h2.667V4zm4 10.667H5.333v10.666h21.334V14.667zm-6.667-8h-8v2.666H9.333V6.667h-4V12h21.334V6.667h-4v2.666H20V6.667zM8 17.333h2.667V20H8v-2.667zm6.667 0h2.666V20h-2.666v-2.667zm6.666 0H24V20h-2.667v-2.667z"/></symbol><symbol id="icon-calendar-today" viewBox="0 0 28 28"><path d="M25 6.25A3.25 3.25 0 0 0 21.75 3H6.25A3.25 3.25 0 0 0 3 6.25v15.5A3.25 3.25 0 0 0 6.25 25h5.998l.002-.75v-.75h-6a1.75 1.75 0 0 1-1.75-1.75V9.503h19V21.75a1.75 1.75 0 0 1-1.75 1.75h-6V25h6A3.25 3.25 0 0 0 25 21.75V6.25ZM6.25 4.5h15.5c.966 0 1.75.784 1.75 1.75v1.753h-19V6.25c0-.966.784-1.75 1.75-1.75Z"/><path d="M15.25 13.25a1.25 1.25 0 1 1-2.5 0 1.25 1.25 0 0 1 2.5 0ZM15.752 20.31a.75.75 0 1 0 .996-1.12l-2.25-2a.75.75 0 0 0-.996 0l-2.25 2a.75.75 0 1 0 .996 1.12l1.002-.89v5.83a.75.75 0 0 0 1.5 0v-5.83l1.002.89Z"/></symbol></defs></svg>