<svg xmlns="http://www.w3.org/2000/svg" aria-hidden="true" style="position:absolute;width:0;height:0;overflow:hidden"><defs><symbol id="icon-arrow-down" viewBox="0 0 32 32"><path d="M3.76 9.143 0 12.622l16 14.807 16-14.807-3.76-3.479L16 20.446 3.76 9.143z"/></symbol><symbol id="icon-arrow-up" viewBox="0 0 32 32"><path d="M3.76 25.143 0 21.664 16 6.857l16 14.807-3.76 3.479L16 13.84 3.76 25.143z"/></symbol><symbol id="icon-calendar" viewBox="0 0 32 32"><path d="M22.667 4H28c.736 0 1.333.597 1.333 1.333v21.334c0 .736-.597 1.333-1.333 1.333H4a1.333 1.333 0 0 1-1.333-1.333V5.333C2.667 4.597 3.264 4 4 4h5.333V1.333H12V4h8V1.333h2.667V4zm4 10.667H5.333v10.666h21.334V14.667zm-6.667-8h-8v2.666H9.333V6.667h-4V12h21.334V6.667h-4v2.666H20V6.667zM8 17.333h2.667V20H8v-2.667zm6.667 0h2.666V20h-2.666v-2.667zm6.666 0H24V20h-2.667v-2.667z"/></symbol><symbol id="icon-readed" viewBox="0 0 32 32"><path d="M28.779 6.39c-0.277 0.008-0.54 0.124-0.733 0.323l-16.313 16.313-6.713-6.713c-0.098-0.102-0.216-0.184-0.346-0.24s-0.27-0.086-0.412-0.088c-0.142-0.001-0.283 0.025-0.414 0.079s-0.251 0.133-0.351 0.233c-0.1 0.1-0.18 0.22-0.233 0.351s-0.081 0.272-0.079 0.414c0.001 0.142 0.031 0.282 0.087 0.412s0.138 0.248 0.24 0.346l7.467 7.467c0.2 0.2 0.471 0.312 0.754 0.312s0.554-0.112 0.754-0.312l17.067-17.067c0.154-0.15 0.259-0.343 0.302-0.553s0.021-0.429-0.063-0.627c-0.084-0.198-0.225-0.366-0.406-0.482s-0.393-0.175-0.607-0.168z"></path>
</symbol><symbol id="icon-favorite" viewBox="0 0 32 32"><path d="M32 16c0 8.837-7.163 16-16 16S0 24.837 0 16 7.163 0 16 0s16 7.163 16 16z"/><path fill="none" stroke="#f4f4f4" stroke-linecap="round" stroke-linejoin="round" d="M22.63 10.457c-.747-.747-1.778-1.208-2.918-1.208s-2.171.462-2.918 1.208l-.795.795-.795-.795a4.126 4.126 0 0 0-5.835 5.835l6.63 6.63 6.63-6.63c.747-.747 1.208-1.778 1.208-2.918s-.462-2.171-1.208-2.918v0z"/></symbol><symbol id="icon-heart-filled" viewBox="0 0 32 32"><path d="M9.334 4c-3.682 0-6.668 2.954-6.668 6.6 0 2.942 1.168 9.926 12.652 16.986a1.31 1.31 0 0 0 1.37-.003l-.006.003c11.484-7.06 12.652-14.044 12.652-16.986 0-3.646-2.986-6.6-6.668-6.6C18.986 4 16 8 16 8s-2.986-4-6.666-4z"/></symbol><symbol id="icon-heart-transparent" viewBox="0 0 32 32"><path fill="none" stroke="#4440f7" stroke-linecap="round" stroke-linejoin="round" stroke-width="2" d="M9.334 4c-3.682 0-6.668 2.954-6.668 6.6 0 2.942 1.168 9.926 12.652 16.986a1.31 1.31 0 0 0 1.37-.003l-.006.003c11.484-7.06 12.652-14.044 12.652-16.986 0-3.646-2.986-6.6-6.668-6.6C18.986 4 16 8 16 8s-2.986-4-6.666-4z"/></symbol><symbol id="icon-home" viewBox="0 0 32 32"><path d="M32 16c0 8.837-7.163 16-16 16S0 24.837 0 16 7.163 0 16 0s16 7.163 16 16z"/><path fill="none" stroke="#f4f4f4" stroke-linecap="round" stroke-linejoin="round" d="M9.25 13.75 16 8.5l6.75 5.25V22a1.5 1.5 0 0 1-1.5 1.5v0h-10.5a1.5 1.5 0 0 1-1.5-1.5v0-8.25z"/><path fill="none" stroke="#f4f4f4" stroke-linecap="round" stroke-linejoin="round" d="M13.75 23.5V16h4.5v7.5"/></symbol><symbol id="icon-read" viewBox="0 0 32 32"><path d="M32 16c0 8.837-7.163 16-16 16S0 24.837 0 16 7.163 0 16 0s16 7.163 16 16z"/><path fill="none" stroke="#f4f4f4" stroke-linecap="round" stroke-linejoin="round" d="M8.5 9.25H13a3 3 0 0 1 3 3v10.5a2.25 2.25 0 0 0-2.25-2.25v0H8.5V9.25zm15 0H19a3 3 0 0 0-3 3v10.5a2.25 2.25 0 0 1 2.25-2.25v0h5.25V9.25z"/></symbol><symbol id="icon-search-lense" viewBox="0 0 32 32"><path d="M13.333 23.6c2.368 0 4.666-.752 6.53-2.138l5.862 5.568 1.885-1.792-5.862-5.568a9.7 9.7 0 0 0 2.253-6.201v-.002c0-5.587-4.784-10.134-10.667-10.134-5.882 0-10.666 4.547-10.666 10.134S7.452 23.6 13.334 23.6zm0-17.733c4.413 0 8 3.408 8 7.6s-3.587 7.6-8 7.6c-4.411 0-8-3.408-8-7.6s3.589-7.6 8-7.6z"/></symbol>
<symbol id="icon-close-menu" viewBox="0 0 32 32">
<path stroke-linejoin="round" stroke-linecap="round" stroke-miterlimit="4" stroke-width="2.6667" d="M24 8l-16 16"></path>
<path stroke-linejoin="round" stroke-linecap="round" stroke-miterlimit="4" stroke-width="2.6667" d="M8 8l16 16"></path>
</symbol>
<symbol id="icon-home" viewBox="0 0 32 32">
<path fill="none" stroke="#f4f4f4" style="stroke: var(--color1, #f4f4f4)" stroke-linejoin="round" stroke-linecap="round" stroke-miterlimit="4" stroke-width="1.7778" d="M4 12l12-9.333 12 9.333v14.667c0 0.707-0.281 1.386-0.781 1.886s-1.178 0.781-1.886 0.781h-18.667c-0.707 0-1.386-0.281-1.886-0.781s-0.781-1.178-0.781-1.886v-14.667z"></path>
<path fill="none" stroke="#f4f4f4" style="stroke: var(--color1, #f4f4f4)" stroke-linejoin="round" stroke-linecap="round" stroke-miterlimit="4" stroke-width="1.7778" d="M12 29.333v-13.333h8v13.333"></path>
</symbol>
<symbol id="icon-heart" viewBox="0 0 32 32">
<path fill="none" stroke="#f4f4f4" style="stroke: var(--color1, #f4f4f4)" stroke-linejoin="round" stroke-linecap="round" stroke-miterlimit="4" stroke-width="1.7778" d="M27.788 6.147c-0.681-0.681-1.49-1.222-2.38-1.591s-1.844-0.559-2.807-0.559c-0.963 0-1.917 0.19-2.807 0.559s-1.699 0.909-2.38 1.591l-1.413 1.413-1.413-1.413c-1.376-1.376-3.241-2.148-5.187-2.148s-3.811 0.773-5.187 2.148c-1.376 1.376-2.148 3.241-2.148 5.187s0.773 3.811 2.148 5.187l11.787 11.787 11.787-11.787c0.681-0.681 1.222-1.49 1.591-2.38s0.558-1.844 0.558-2.807-0.19-1.917-0.558-2.807c-0.369-0.89-0.909-1.699-1.591-2.38v0z"></path>
</symbol>
<symbol id="icon-book" viewBox="0 0 32 32">
<path fill="none" stroke="#f4f4f4" style="stroke: var(--color1, #f4f4f4)" stroke-linejoin="round" stroke-linecap="round" stroke-miterlimit="4" stroke-width="1.7778" d="M2.667 4h8c1.415 0 2.771 0.562 3.771 1.562s1.562 2.357 1.562 3.771v18.667c0-1.061-0.421-2.078-1.172-2.828s-1.768-1.172-2.828-1.172h-9.333v-20z"></path>
<path fill="none" stroke="#f4f4f4" style="stroke: var(--color1, #f4f4f4)" stroke-linejoin="round" stroke-linecap="round" stroke-miterlimit="4" stroke-width="1.7778" d="M29.333 4h-8c-1.414 0-2.771 0.562-3.771 1.562s-1.562 2.357-1.562 3.771v18.667c0-1.061 0.421-2.078 1.172-2.828s1.768-1.172 2.828-1.172h9.333v-20z"></path>
</symbol>
<symbol id="icon-shevron" viewBox="0 0 18 32">
<path fill="none" stroke="#f4f4f4" style="stroke: var(--color1, #f4f4f4)" stroke-linejoin="round" stroke-linecap="round" stroke-miterlimit="4" stroke-width="4.5714" d="M2.286 29.714l13.714-13.714-13.714-13.714"></path>
</symbol>
</defs></svg>