<svg xmlns="http://www.w3.org/2000/svg" aria-hidden="true" overflow="hidden" style="position:absolute;width:0;height:0">
  <defs>
    <symbol id="icon-magnifier" viewBox="0 0 34 32">
      <path d="M14.67 26.5c2.96 0 5.83-.94 8.16-2.67l7.33 6.96 2.35-2.24-7.32-6.96A12.2 12.2 0 0 0 28 13.83c0-6.98-5.98-12.66-13.33-12.66S1.33 6.85 1.33 13.83 7.32 26.5 14.67 26.5zm0-22.17c5.51 0 10 4.26 10 9.5s-4.49 9.5-10 9.5-10-4.26-10-9.5 4.48-9.5 10-9.5z"/>
    </symbol>
    <symbol id="icon-menu" viewBox="0 0 32 32">
      <path stroke-linecap="round" stroke-linejoin="round" stroke-width="2.67" d="M4 16h24M4 8h24M4 24h24"/>
    </symbol>
    <symbol id="icon-moon" viewBox="0 0 32 32">
      <path fill="none" stroke-linecap="round" stroke-linejoin="round" stroke-width="2.53" d="M29.26 17.16a13.26 13.26 0 0 1-26.15 1.67 13.26 13.26 0 0 1 11.73-16.1 10.32 10.32 0 0 0 1 13.43 10.32 10.32 0 0 0 13.42 1v0z"/>
    </symbol>
    <symbol id="icon-sun" viewBox="0 0 32 32">
      <path fill="none" stroke-linecap="round" stroke-linejoin="round" stroke-width="2.29" d="M16 1.78v2.58m0 23.28v2.58M5.94 5.94l1.84 1.84m16.44 16.44 1.84 1.84M1.78 16h2.58m23.28 0h2.58M5.94 26.06l1.84-1.84M24.22 7.78l1.84-1.84M22.46 16a6.46 6.46 0 1 1-12.93 0 6.46 6.46 0 0 1 12.94 0z"/>
    </symbol>
    <symbol id="icon-arrow-down" viewBox="0 0 32 32">
      <path  d="M3.76 9.143 0 12.622l16 14.807 16-14.807-3.76-3.479L16 20.446 3.76 9.143z"/>
    </symbol>
    <symbol id="icon-arrow-up" viewBox="0 0 32 32">
      <path fill="#4440f6" d="M3.76 25.143 0 21.664 16 6.857l16 14.807-3.76 3.479L16 13.84 3.76 25.143z" style="fill:var(--color1, #4440f6)"/>
    </symbol>
    <symbol id="icon-calendar" viewBox="0 0 32 32">
      <path d="M22.667 4H28c.736 0 1.333.597 1.333 1.333v21.334c0 .736-.597 1.333-1.333 1.333H4a1.333 1.333 0 0 1-1.333-1.333V5.333C2.667 4.597 3.264 4 4 4h5.333V1.333H12V4h8V1.333h2.667V4zm4 10.667H5.333v10.666h21.334V14.667zm-6.667-8h-8v2.666H9.333V6.667h-4V12h21.334V6.667h-4v2.666H20V6.667zM8 17.333h2.667V20H8v-2.667zm6.667 0h2.666V20h-2.666v-2.667zm6.666 0H24V20h-2.667v-2.667z"/>
    </symbol> 
    <symbol id="icon-calendar-today" viewBox="0 0 28 28">
      <path d="M25 6.25C25 4.45507 23.5449 3 21.75 3H6.25C4.45507 3 3 4.45507 3 6.25V21.75C3 23.5449 4.45507 25 6.25 25H12.2483C12.2483 25 12.25 24.5184 12.25 24.25V23.5H6.25C5.2835 23.5 4.5 22.7165 4.5 21.75V9.503H23.5V21.75C23.5 22.7165 22.7165 23.5 21.75 23.5H15.75V24.25C15.75 24.5184 15.75 25 15.75 25H21.75C23.5449 25 25 23.5449 25 21.75V6.25ZM6.25 4.5H21.75C22.7165 4.5 23.5 5.2835 23.5 6.25V8.003H4.5V6.25C4.5 5.2835 5.2835 4.5 6.25 4.5Z" /><path d="M15.25 13.25C15.25 13.9404 14.6904 14.5 14 14.5C13.3096 14.5 12.75 13.9404 12.75 13.25C12.75 12.5596 13.3096 12 14 12C14.6904 12 15.25 12.5596 15.25 13.25Z" /><path d="M15.7517 20.3105C16.0613 20.5857 16.5354 20.5579 16.8105 20.2483C17.0857 19.9387 17.0579 19.4646 16.7483 19.1894L14.4983 17.1894C14.2141 16.9368 13.7859 16.9368 13.5017 17.1894L11.2517 19.1894C10.9421 19.4646 10.9142 19.9387 11.1894 20.2483C11.4646 20.5579 11.9387 20.5857 12.2483 20.3105L13.25 19.4201V25.25C13.25 25.6642 13.5858 26 14 26C14.4142 26 14.75 25.6642 14.75 25.25V19.4201L15.7517 20.3105Z" />
    </symbol> 
  </defs>
</svg>



